#!OML:ASF Y:\EmotionMaleHayes\Project 1\Capture day 1\Session 1\Male1.ASF
:FULLY-SPECIFIED
:DEGREES
121
root -19.6811 15.2004 5.31848 -10.1619 62.9048 -35.1911
lowerback 27.5542 11.8008 2.56459
upperback 11.8123 16.5562 5.77069
thorax -2.59542 8.25848 0.0310465
lowerneck -23.8804 1.15177 5.31405
upperneck 19.2191 0.848565 -4.52008
head 10.1001 0.242874 -2.35008
rclavicle 1.11319e-013 -8.26944e-014
rhumerus 21.0663 23.4048 -55.3906
rradius 56.2713
rwrist -2.14652
rhand -18.4539 -31.8134
rfingers 7.12502
rthumb 7.83221 -61.6484
lclavicle 1.11319e-013 -8.26944e-014
lhumerus -52.4385 30.0307 -8.9562
lradius 29.0352
lwrist -1.5934
lhand -9.49192 -7.03672
lfingers 7.12502
lthumb 16.4729 22.2839
rfemur -5.84964 -5.83136 -5.07773
rtibia 39.7856
rfoot -11.9139 -12.054
rtoes 13.923
lfemur -54.4875 15.4921 -28.3641
ltibia 63.7307
lfoot -32.0604 2.69292
ltoes 23.3025
122
root -19.51 15.201 5.31089 -10.5921 63.4492 -35.7828
lowerback 28.147 11.5491 2.7549
upperback 11.7301 16.3443 6.13752
thorax -3.02237 8.13724 0.245656
lowerneck -23.8293 1.09408 4.97386
upperneck 19.2611 0.883321 -4.47342
head 10.1063 0.240002 -2.27231
rclavicle -7.63333e-014 4.77083e-015
rhumerus 17.4282 22.3828 -57.1324
rradius 55.9354
rwrist -1.18753
rhand -19.905 -32.1148
rfingers 7.12502
rthumb 6.43154 -61.9972
lclavicle -7.63333e-014 4.77083e-015
lhumerus -50.3333 30.1747 -7.58264
lradius 29.543
lwrist 0.584818
lhand -11.2219 -8.13258
lfingers 7.12502
lthumb 14.8067 21.3184
rfemur -8.00477 -6.27333 -5.53559
rtibia 41.249
rfoot -12.1045 -12.916
rtoes 14.0863
lfemur -53.5331 14.8917 -28.4139
ltibia 63.2713
lfoot -32.3637 2.31816
ltoes 23.7394
123
root -19.3362 15.2139 5.30033 -11.1078 64.0444 -36.4243
lowerback 28.3275 11.1273 2.91301
upperback 12 15.9017 6.49442
thorax -2.86682 7.93741 0.66958
lowerneck -23.8146 1.22662 4.79519
upperneck 18.9502 1.14587 -4.5879
head 10.0062 0.330418 -2.23923
rclavicle -3.49861e-014 3.97569e-014
rhumerus 14.5243 21.1544 -58.4839
rradius 55.4298
rwrist -0.175941
rhand -21.4565 -31.6854
rfingers 7.12502
rthumb 4.93359 -61.608
lclavicle -3.49861e-014 3.97569e-014
lhumerus -48.5678 29.88 -5.99738
lradius 30.3868
lwrist 3.42001
lhand -12.4458 -9.20463
lfingers 7.12502
lthumb 13.6273 20.3293
rfemur -10.2555 -6.7038 -5.83645
rtibia 42.6968
rfoot -12.2364 -13.0508
rtoes 14.3898
lfemur -52.5308 14.2532 -28.4742
ltibia 62.7266
lfoot -32.6479 2.32274
ltoes 23.1625
124
root -19.1602 15.2374 5.28988 -11.3965 64.6093 -36.8589
lowerback 28.8659 10.7508 2.92801
upperback 11.9875 15.48 6.6912
thorax -3.1756 7.72027 0.894163
lowerneck -23.7755 1.40168 4.86724
upperneck 18.8518 1.37136 -4.63921
head 9.97716 0.432562 -2.23356
rclavicle -4.29375e-014 0
rhumerus 11.3823 19.8224 -59.9277
rradius 54.9094
rwrist 0.671055
rhand -23.2942 -31.2167
rfingers 7.12502
rthumb 3.15899 -61.1731
lclavicle -4.29375e-014 0
lhumerus -46.4138 28.3973 -4.15913
lradius 31.3157
lwrist 6.79224
lhand -13.5673 -10.1501
lfingers 7.12502
lthumb 12.5463 19.4532
rfemur -12.7504 -7.14211 -6.07234
rtibia 44.1813
rfoot -12.8768 -11.9093
rtoes 15.3597
lfemur -51.5499 13.5855 -28.5993
ltibia 62.0318
lfoot -32.7824 2.17747
ltoes 23.0073
125
root -18.9892 15.2692 5.2827 -11.3687 65.3405 -37.0919
lowerback 29.1695 10.3467 3.07386
upperback 12.0541 15.0323 6.72173
thorax -3.20447 7.50859 0.951153
lowerneck -23.7673 1.52626 5.03785
upperneck 18.5166 1.47563 -4.66653
head 9.86328 0.487262 -2.25102
rclavicle 8.90555e-014 3.18055e-015
rhumerus 8.6494 17.8551 -61.143
rradius 54.263
rwrist 1.25445
rhand -24.8768 -30.9138
rfingers 7.12502
rthumb 1.6306 -60.8873
lclavicle 8.90555e-014 3.18055e-015
lhumerus -44.2388 27.663 -2.52049
lradius 32.3265
lwrist 9.0591
lhand -14.2434 -10.9279
lfingers 7.12502
lthumb 11.8944 18.7142
rfemur -15.4595 -7.95095 -6.27816
rtibia 45.5644
rfoot -12.6748 -11.5888
rtoes 14.1747
lfemur -50.6306 12.6645 -28.8456
ltibia 61.1541
lfoot -32.7973 1.83054
ltoes 23.4936
